<svg width="40" height="31" viewBox="0 0 40 31" fill="none" xmlns="http://www.w3.org/2000/svg">
<path fill-rule="evenodd" clip-rule="evenodd" d="M13.6917 8.38493C13.5022 8.4127 13.3124 8.43916 13.123 8.46562L12.9693 8.48708C12.5585 8.5457 12.1467 8.60223 11.7328 8.61962C11.3217 8.63893 10.9094 8.63539 10.4973 8.63177C10.3704 8.6307 10.2434 8.62962 10.1166 8.62916C9.13574 8.624 8.17205 8.477 7.23112 8.15023C6.40388 7.86347 5.6483 7.43731 4.94845 6.86223C4.34174 6.36277 3.84357 5.76285 3.4268 5.10893C2.70848 3.97839 2.22433 2.72862 1.9782 1.38779C1.95765 1.28088 1.91994 1.1771 1.88223 1.07302C1.86337 1.02125 1.84459 0.969396 1.8278 0.91705C1.80718 0.912512 1.78457 0.908927 1.76203 0.905334C1.72754 0.977604 1.69228 1.04942 1.65694 1.12118C1.57239 1.29316 1.48792 1.46485 1.41518 1.64183C0.695399 3.38163 0.479082 5.22154 0.708966 7.123C0.775655 7.69262 0.950043 8.2557 1.12236 8.81216C1.14643 8.88993 1.1705 8.96762 1.19419 9.04508C1.37532 9.64531 1.70309 10.1642 2.03477 10.6892L2.0859 10.7702C2.64447 11.6532 3.32914 12.3942 4.09882 13.0391C4.67311 13.5187 5.30321 13.9252 5.92947 14.3292C5.99945 14.3744 6.07005 14.4199 6.13996 14.4652C6.9626 15.0002 7.84757 15.3957 8.74365 15.7604C8.86622 15.8103 8.98902 15.8593 9.11205 15.9072L9.12087 21.4246L12.2023 19.0312L15.187 28.8205C15.2672 29.0834 15.4811 29.2834 15.748 29.3451L20.4025 30.4209L25.0536 29.3451C25.3205 29.2834 25.5343 29.0834 25.6144 28.8206L28.5875 19.0697L31.6173 21.4246L31.6266 15.5601C32.3571 15.249 33.0737 14.9041 33.7485 14.4652C33.8185 14.4198 33.8886 14.3746 33.9587 14.3294C34.5849 13.9254 35.2154 13.5187 35.7897 13.0391C36.5593 12.3942 37.244 11.6532 37.8025 10.7702L37.8537 10.6892C38.1853 10.1642 38.5131 9.64531 38.6943 9.04508C38.7179 8.96808 38.7417 8.89093 38.7656 8.8137L38.7661 8.81216C38.9384 8.2557 39.1128 7.69262 39.1795 7.123C39.4094 5.22154 39.1931 3.38163 38.4733 1.64183C38.4005 1.46485 38.3161 1.29317 38.2315 1.1212C38.1962 1.04943 38.1609 0.977611 38.1264 0.905334C38.1039 0.908927 38.0813 0.912512 38.0606 0.91705C38.0439 0.969358 38.0251 1.02117 38.0063 1.07291C37.9685 1.17699 37.9308 1.28089 37.9103 1.38779C37.6641 2.72862 37.18 3.97839 36.4617 5.10893C36.0449 5.76285 35.5467 6.36277 34.9401 6.86223C34.2401 7.43731 33.4846 7.86347 32.6574 8.15023C31.7164 8.477 30.7527 8.624 29.7718 8.62916C29.6451 8.62962 29.5183 8.6307 29.3914 8.63177C28.9792 8.63539 28.5668 8.63893 28.1557 8.61962C28.0822 8.61654 28.0086 8.61216 27.9353 8.60685L20.4025 6.57839L13.6917 8.38493Z" fill="#000000"/>
</svg>
